<svg width="193" height="44" viewBox="0 0 193 44" fill="none" xmlns="http://www.w3.org/2000/svg">
<path d="M1 14L15.5 2L29 14L47 2L61 14L78 2L94 14L110.5 2L126.5 14L143.5 2L158.5 14L174 2L191.5 14" stroke="#33A7A6" stroke-width="2"/>
<path d="M1 28L15.5 16L29 28L47 16L61 28L78 16L94 28L110.5 16L126.5 28L143.5 16L158.5 28L174 16L191.5 28" stroke="#33A7A6" stroke-width="2"/>
<path d="M1 42L15.5 30L29 42L47 30L61 42L78 30L94 42L110.5 30L126.5 42L143.5 30L158.5 42L174 30L191.5 42" stroke="#33A7A6" stroke-width="2"/>
</svg>
