<svg width="111" height="83" viewBox="0 0 111 83" fill="none" xmlns="http://www.w3.org/2000/svg">
<path d="M110.007 73.1372C108.813 72.7342 107.729 72.0602 106.84 71.1682C105.951 70.2761 105.28 69.1903 104.881 67.9957C104.784 67.7058 104.599 67.4536 104.351 67.2749C104.103 67.0962 103.806 67 103.5 67C103.194 67 102.897 67.0962 102.649 67.2749C102.401 67.4536 102.216 67.7058 102.119 67.9957C101.72 69.1903 101.049 70.2761 100.16 71.1682C99.2707 72.0602 98.1869 72.7342 96.9935 73.1372C96.7041 73.234 96.4525 73.4194 96.2742 73.667C96.0959 73.9147 96 74.2121 96 74.5172C96 74.8224 96.0959 75.1198 96.2742 75.3674C96.4525 75.6151 96.7041 75.8004 96.9935 75.8972C98.1869 76.3002 99.2707 76.9742 100.16 77.8662C101.049 78.7583 101.72 79.8442 102.119 81.0388C102.216 81.3287 102.401 81.5809 102.649 81.7596C102.897 81.9383 103.194 82.0344 103.5 82.0344C103.806 82.0344 104.103 81.9383 104.351 81.7596C104.599 81.5809 104.784 81.3287 104.881 81.0388C105.28 79.8442 105.951 78.7583 106.84 77.8662C107.729 76.9742 108.813 76.3002 110.007 75.8972C110.296 75.8004 110.548 75.6151 110.726 75.3674C110.904 75.1198 111 74.8224 111 74.5172C111 74.2121 110.904 73.9147 110.726 73.667C110.548 73.4194 110.296 73.234 110.007 73.1372ZM103.5 77.3526C102.736 76.2442 101.777 75.2836 100.67 74.5172C101.777 73.7508 102.736 72.7902 103.5 71.6818C104.264 72.7902 105.223 73.7508 106.33 74.5172C105.223 75.2836 104.264 76.2442 103.5 77.3526Z" fill="#33A7A6"/>
<path d="M14.0065 6.13723C12.8131 5.73418 11.7293 5.06023 10.84 4.16819C9.95072 3.27615 9.28009 2.19026 8.88071 0.995652C8.78423 0.705753 8.59895 0.453577 8.35113 0.274871C8.10332 0.096165 7.80553 0 7.5 0C7.19447 0 6.89668 0.096165 6.64887 0.274871C6.40105 0.453577 6.21577 0.705753 6.11929 0.995652C5.71991 2.19026 5.04928 3.27615 4.15998 4.16819C3.27067 5.06023 2.18685 5.73418 0.993475 6.13723C0.704102 6.23405 0.452486 6.41938 0.274205 6.66702C0.095924 6.91466 0 7.21208 0 7.51722C0 7.82235 0.095924 8.11978 0.274205 8.36742C0.452486 8.61506 0.704102 8.80038 0.993475 8.8972C2.18685 9.30025 3.27067 9.9742 4.15998 10.8662C5.04928 11.7583 5.71991 12.8442 6.11929 14.0388C6.21577 14.3287 6.40105 14.5809 6.64887 14.7596C6.89668 14.9383 7.19447 15.0344 7.5 15.0344C7.80553 15.0344 8.10332 14.9383 8.35113 14.7596C8.59895 14.5809 8.78423 14.3287 8.88071 14.0388C9.28009 12.8442 9.95072 11.7583 10.84 10.8662C11.7293 9.9742 12.8131 9.30025 14.0065 8.8972C14.2959 8.80038 14.5475 8.61506 14.7258 8.36742C14.9041 8.11978 15 7.82235 15 7.51722C15 7.21208 14.9041 6.91466 14.7258 6.66702C14.5475 6.41938 14.2959 6.23405 14.0065 6.13723ZM7.5 10.3526C6.73581 9.24425 5.77704 8.28359 4.67019 7.51722C5.77704 6.75085 6.73581 5.79019 7.5 4.68183C8.26419 5.79019 9.22296 6.75085 10.3298 7.51722C9.22296 8.28359 8.26419 9.24425 7.5 10.3526Z" fill="#33A7A6"/>
</svg>
